<svg clip-rule="evenodd" fill-rule="evenodd" stroke-linejoin="round" stroke-miterlimit="2" viewBox="0 0 32 32" xmlns="http://www.w3.org/2000/svg"><g transform="translate(-48)"><g transform="matrix(1.667 0 0 1.083 -35.333 -1.333)"><path d="m60.709 27.537c-1.161-.041-2.196-.863-2.894-2.138-.527.33-1.149.524-1.815.524-1.159 0-2.182-.592-2.819-1.461-.503-.686-.781-1.547-.781-2.462s.278-1.776.781-2.462c.637-.869 1.66-1.461 2.819-1.461.527 0 1.026.121 1.472.335.685-1.723 1.92-2.874 3.328-2.874 1.319 0 2.486 1.01 3.191 2.552 1.843.67 3.109 2.643 3.109 4.833 0 1.164-.34 2.251-.941 3.124-.804 1.168-2.096 1.953-3.559 1.953-.678 0-1.32-.167-1.891-.463z" fill="#fdd941"/></g><path d="m75.256 22c1.424 0 2.652 1.002 2.939 2.397.286 1.395-.448 2.799-1.757 3.36l-4.667 2c-.373.16-.775.243-1.182.243h-13.178c-.407 0-.809-.083-1.182-.243l-4.667-2c-1.309-.561-2.043-1.965-1.757-3.36.287-1.395 1.515-2.397 2.939-2.397z" fill="#e4e6e7"/><g transform="translate(1 -1)"><circle cx="71" cy="9" fill="#ff2328" r="7"/></g><g transform="matrix(.707 .707 -.707 .707 26.745 -48.569)"><path d="m71 6c0-.552.448-1 1-1s1 .448 1 1v4c0 .552-.448 1-1 1s-1-.448-1-1z" fill="#ecf0f4"/></g><g transform="matrix(.707 -.707 .707 .707 15.432 53.255)"><path d="m71 6c0-.552.448-1 1-1s1 .448 1 1v4c0 .552-.448 1-1 1s-1-.448-1-1z" fill="#ecf0f4"/></g><g transform="matrix(1.667 0 0 1.083 -35.333 -1.333)"><path d="m66.967 21.704c.575.321 1.021 1.082 1.15 2.047.172 1.288-.269 2.584-1.054 3.102l-2.8 1.846c-.224.148-.466.224-.709.224h-7.908c-.243 0-.485-.076-.709-.224l-2.8-1.846c-.785-.518-1.226-1.814-1.054-3.102.142-1.066.671-1.882 1.333-2.133.066-.771.333-1.49.765-2.08.637-.869 1.66-1.461 2.819-1.461.527 0 1.026.121 1.472.335.685-1.723 1.92-2.874 3.328-2.874 1.319 0 2.486 1.01 3.191 2.552 1.492.543 2.606 1.939 2.976 3.614zm-14.324 1.735c-.192.107-.341.361-.384.683-.058.429.089.861.351 1.034l2.8 1.846c.075.05.155.075.236.075h7.908c.081 0 .161-.025.236-.075l2.8-1.846c.239-.158.383-.533.362-.924-.002-.036-.006-.073-.011-.11-.057-.429-.302-.737-.587-.737h-13.508c-.071 0-.139.019-.203.054zm12.944-1.901c-.409-.842-1.178-1.457-2.073-1.716-.168-.049-.314-.205-.402-.429-.474-1.203-1.332-2.008-2.312-2.008-1.119 0-2.08 1.049-2.489 2.543-.064.232-.186.413-.339.503-.152.09-.322.081-.47-.027-.422-.306-.941-.481-1.502-.481-.828 0-1.568.376-2.023.996-.136.187-.246.394-.311.619zm-1.187-19.384c2.318 0 4.2 2.895 4.2 6.461 0 3.567-1.882 6.462-4.2 6.462s-4.2-2.895-4.2-6.462c0-3.566 1.882-6.461 4.2-6.461zm0 1.846c-1.656 0-3 2.068-3 4.615 0 2.548 1.344 4.616 3 4.616s3-2.068 3-4.616c0-2.547-1.344-4.615-3-4.615zm-.849 4.615-.424-.652c-.234-.361-.234-.946 0-1.306s.615-.36.849 0l.424.653.424-.653c.234-.36.615-.36.849 0s.234.945 0 1.306l-.424.652.424.653c.234.36.234.945 0 1.306-.234.36-.615.36-.849 0l-.424-.653-.424.653c-.234.36-.615.36-.849 0-.234-.361-.234-.946 0-1.306z" fill="#2b2d42"/></g></g></svg>