<svg id="Layer_1" enable-background="new 0 0 256 256" height="512" viewBox="0 0 256 256" width="512" xmlns="http://www.w3.org/2000/svg"><g><path d="m252.25 76.737v37.865h-248.5v-37.865c0-2.761 2.239-5 5-5h70.23c-.99 3.87-1.5 7.89-1.5 11.97h100.83c0-4.04-.51-8.06-1.52-11.97h70.46c2.761 0 5 2.239 5 5z" fill="#f0c020"/><path d="m60.62 106.25h-5.883c-1.381 0-2.5-1.119-2.5-2.5s1.119-2.5 2.5-2.5h5.883c1.381 0 2.5 1.119 2.5 2.5s-1.119 2.5-2.5 2.5zm-15.883 0h-31.987c-1.381 0-2.5-1.119-2.5-2.5v-23.013c0-1.381 1.119-2.5 2.5-2.5s2.5 1.119 2.5 2.5v20.513h29.487c1.381 0 2.5 1.119 2.5 2.5s-1.119 2.5-2.5 2.5z" fill="#f9e5af"/><path d="m243.25 106.25h-31.987c-1.381 0-2.5-1.119-2.5-2.5s1.119-2.5 2.5-2.5h29.487v-20.513c0-1.381 1.119-2.5 2.5-2.5s2.5 1.119 2.5 2.5v23.013c0 1.381-1.119 2.5-2.5 2.5zm-41.987 0h-5.883c-1.381 0-2.5-1.119-2.5-2.5s1.119-2.5 2.5-2.5h5.883c1.381 0 2.5 1.119 2.5 2.5s-1.119 2.5-2.5 2.5z" fill="#f9e5af"/><path d="m136.23 29.73c0 2.69-1.29 5.08-3.29 6.58v.01c-3.33-.26-6.63-.26-9.87 0v-.01c-2.01-1.49-3.3-3.88-3.3-6.58 0-4.54 3.68-8.23 8.23-8.23s8.23 3.69 8.23 8.23z" fill="#efefef"/><path d="m176.79 71.74c-4.66-18.06-19.88-33.55-43.85-35.42-3.33-.26-6.63-.26-9.87 0-23.62 1.84-39.36 16.9-44.09 35.42-.99 3.87-1.5 7.89-1.5 11.97h100.83c0-4.04-.51-8.06-1.52-11.97z" fill="#afafaf"/><path d="m74.308 83.709c-2.658 0-4.813 2.155-4.813 4.813 0 5.987 4.853 10.84 10.84 10.84h95.33c5.987 0 10.84-4.853 10.84-10.84 0-2.658-2.147-4.813-4.805-4.813z" fill="#efefef"/><path d="m165.037 74.759c-.15-.771-.33-1.542-.533-2.294-.361-1.333.427-2.706 1.76-3.066 1.331-.36 2.706.427 3.066 1.76.234.866.441 1.755.614 2.642.265 1.355-.62 2.668-1.975 2.933-1.348.265-2.667-.614-2.932-1.975zm-4.192-10.802c-5.995-9.85-16.388-15.813-27.802-15.952-1.381-.017-2.486-1.15-2.47-2.53.018-1.381 1.117-2.469 2.531-2.47 13.148.161 25.115 7.021 32.012 18.353.718 1.179.343 2.717-.836 3.436-1.177.715-2.716.344-3.435-.837z" fill="#efefef"/><path d="m237.9 139.09v90.64h-219.8v-90.64c13.26 4.31 27.07-5.59 27.07-19.71v-4.78h165.66v4.78c0 11.44 9.27 20.71 20.71 20.71 2.22 0 4.36-.35 6.36-1z" fill="#72c1e8"/><path d="m3.75 114.6v4.78c0 9.22 6.02 17.03 14.35 19.71 13.26 4.31 27.07-5.59 27.07-19.71v-4.78c-15.151 0-26.594 0-41.42 0z" fill="#efefef"/><path d="m86.58 114.603v4.777c0 11.44-9.27 20.71-20.7 20.71h-.01c-11.43 0-20.7-9.27-20.7-20.71v-4.777z" fill="#fc5d3d"/><path d="m86.583 114.603v4.78c0 11.437 9.271 20.708 20.708 20.708 11.437 0 20.708-9.271 20.708-20.708v-4.78z" fill="#efefef"/><path d="m128 114.603v4.78c0 11.437 9.271 20.708 20.708 20.708 11.437 0 20.708-9.271 20.708-20.708v-4.78z" fill="#fc5d3d"/><path d="m210.83 114.603v4.777c0 11.44-9.27 20.71-20.7 20.71h-.01c-11.43 0-20.7-9.27-20.7-20.71v-4.777z" fill="#efefef"/><path d="m252.25 114.603v4.777c0 9.22-6.02 17.03-14.35 19.71-2 .65-4.14 1-6.36 1-11.44 0-20.71-9.27-20.71-20.71v-4.777z" fill="#fc5d3d"/><path d="m243.38 232.732v9.24c0 1.657-1.343 3-3 3h-224.76c-1.657 0-3-1.343-3-3v-9.24c0-1.657 1.343-3 3-3h224.76c1.657 0 3 1.343 3 3z" fill="#afafaf"/><path d="m98.83 153.102h56.92v76.633h-56.92z" fill="#f0c020"/><path d="m71.085 153.102h-32.27c-1.657 0-3 1.343-3 3v52.307c0 1.657 1.343 3 3 3h32.271c1.657 0 3-1.343 3-3v-52.307c-.001-1.657-1.344-3-3.001-3z" fill="#efefef"/><path d="m217.185 153.102h-32.271c-1.657 0-3 1.343-3 3v52.307c0 1.657 1.343 3 3 3h32.271c1.657 0 3-1.343 3-3v-52.307c0-1.657-1.343-3-3-3z" fill="#efefef"/><path d="m229.25 224.232h-47.25c-1.381 0-2.5-1.119-2.5-2.5s1.119-2.5 2.5-2.5h44.75v-67.25c0-1.381 1.119-2.5 2.5-2.5s2.5 1.119 2.5 2.5v69.75c0 1.381-1.119 2.5-2.5 2.5zm-57.25 0h-5.5c-1.381 0-2.5-1.119-2.5-2.5s1.119-2.5 2.5-2.5h5.5c1.381 0 2.5 1.119 2.5 2.5s-1.119 2.5-2.5 2.5z" fill="#c5e5ff"/><path d="m201.171 9.956c-3.457-3.457-9.062-3.457-12.519 0s-5.458 17.978-5.458 17.978 14.521-2.001 17.978-5.458 3.456-9.063-.001-12.52z" fill="#72c1e8"/><path d="m223.06 36.897c-1.15-4.752-5.935-7.671-10.687-6.521s-14.024 12.503-14.024 12.503 13.438 5.855 18.189 4.705 7.672-5.935 6.522-10.687z" fill="#72c1e8"/><path d="m247.25 69.237h-68.558c-5.276-17.759-20.073-31.66-41.026-34.884 3.43-7.173-1.841-15.353-9.666-15.353-7.841 0-13.086 8.196-9.669 15.349-4.261.65-8.345 1.745-12.181 3.271-1.294.522-1.911 1.983-1.4 3.25.5 1.25 1.98 1.9 3.24 1.4 30.126-11.936 65.924 4.987 67.75 38.937h-95.69c.582-10.896 5.002-20.98 12.3-28.527.938-.978.952-2.549-.06-3.54-.96-.92-2.61-.9-3.54.06-5.411 5.605-9.4 12.497-11.645 20.037h-68.355c-4.136 0-7.5 3.364-7.5 7.5v42.643c0 9.642 5.895 17.986 14.35 21.457v86.394c-3.02.011-5.48 2.476-5.48 5.499v9.24c0 3.03 2.47 5.5 5.5 5.5h224.76c3.03 0 5.5-2.47 5.5-5.5v-9.24c0-3.023-2.46-5.488-5.48-5.499v-32.021c0-1.38-1.12-2.5-2.5-2.5s-2.5 1.12-2.5 2.5v32.02h-77.15v-74.128c0-1.381-1.119-2.5-2.5-2.5h-56.92c-1.381 0-2.5 1.119-2.5 2.5v74.128h-21.09c-1.38 0-2.5 1.12-2.5 2.5s1.12 2.5 2.5 2.5h165.14c.27 0 .5.23.5.5v9.24c0 .28-.23.5-.5.5h-224.76c-.27 0-.5-.22-.5-.5v-9.24c0-.27.23-.5.5-.5h39.62c1.37 0 2.5-1.12 2.5-2.5s-1.13-2.5-2.5-2.5h-34.64v-84.96c10.392 1.717 20.128-3.657 24.571-12.428 4.311 8.5 12.508 12.747 20.704 12.746 8.2-.001 16.399-4.253 20.706-12.75 3.834 7.557 11.678 12.751 20.709 12.751 9.038 0 16.878-5.193 20.71-12.75 3.832 7.556 11.672 12.75 20.71 12.75 8.896 0 16.773-4.981 20.709-12.752 3.831 7.558 11.669 12.752 20.701 12.752h.01c9.03 0 16.867-5.192 20.699-12.748 4.528 8.939 14.383 14.128 24.571 12.428v32.94c0 1.38 1.12 2.5 2.5 2.5s2.5-1.12 2.5-2.5v-34.373c8.442-3.466 14.35-11.799 14.35-21.458 0-9.67 0-31.504 0-42.643 0-4.134-3.364-7.498-7.5-7.498zm-119.25-45.237c5.034 0 7.65 6.112 4.08 9.75-2.687-.179-5.646-.169-8.16 0-3.566-3.598-.976-9.75 4.08-9.75zm-26.67 131.602h51.92v71.628h-51.92zm80.37-69.392c1.27 0 2.3 1.04 2.3 2.31 0 4.59-3.74 8.33-8.33 8.34h-95.33c-4.59-.01-8.34-3.75-8.35-8.34.01-1.27 1.05-2.31 2.32-2.31zm-172.95-11.973h67.115c-.415 2.197-.725 4.975-.822 6.973h-.733c-4.03 0-7.31 3.28-7.31 7.31 0 7.36 5.98 13.34 13.34 13.34h95.33c7.35 0 13.33-5.98 13.33-13.34 0-4.03-3.28-7.31-7.3-7.31h-.954c-.099-1.975-.405-4.734-.833-6.973h67.338c1.378 0 2.5 1.122 2.5 2.5v35.363c-11.571 0-233.263 0-243.5 0v-35.363c-.001-1.379 1.121-2.5 2.499-2.5zm-2.5 45.143v-2.278h36.42v2.278c-.02 10.02-8.19 18.19-18.21 18.21-9.998 0-18.21-8.058-18.21-18.21zm59.62 18.21c-10.02-.02-18.18-8.19-18.2-18.21v-2.278h36.41v2.278c-.02 10.02-8.18 18.19-18.21 18.21zm41.42 0c-10.02-.02-18.19-8.19-18.21-18.21v-2.278h36.42v2.278c-.02 10.02-8.19 18.19-18.21 18.21zm41.42 0c-10.02-.02-18.19-8.19-18.21-18.21v-2.278h36.42v2.278c-.02 10.02-8.19 18.19-18.21 18.21zm41.41 0c-10.02-.02-18.18-8.19-18.2-18.21v-2.278h36.41v2.278c-.02 10.02-8.18 18.19-18.21 18.21zm41.42 0c-10.02-.02-18.19-8.19-18.21-18.21v-2.278h36.42v2.278c0 10.148-8.208 18.21-18.21 18.21z"/><path d="m76.585 156.102c0-3.033-2.467-5.5-5.5-5.5-2.369 0 6.963 0-32.271 0-3.033 0-5.5 2.467-5.5 5.5v52.307c0 3.033 2.467 5.5 5.5 5.5h32.271c3.033 0 5.5-2.467 5.5-5.5 0-6.241 0-45.6 0-52.307zm-38.271 18.407h14.136v15.49h-14.136zm19.136 0h14.135v15.49h-14.135zm14.135-18.407v13.408h-14.135v-13.908h13.635c.276 0 .5.224.5.5zm-32.771-.5h13.636v13.908h-14.136v-13.408c0-.276.225-.5.5-.5zm-.5 52.807v-13.41h14.136v13.91h-13.636c-.275 0-.5-.224-.5-.5zm32.771.5h-13.635v-13.91h14.135v13.41c0 .276-.224.5-.5.5z"/><path d="m222.686 156.102c0-3.033-2.467-5.5-5.5-5.5-2.369 0 6.963 0-32.271 0-3.033 0-5.5 2.467-5.5 5.5v52.307c0 3.033 2.467 5.5 5.5 5.5h16.13.005s.003 0 .005 0h16.131c3.033 0 5.5-2.467 5.5-5.5 0-6.241 0-45.6 0-52.307zm-38.271 18.407h14.135v15.49h-14.135zm19.135 0h14.136v15.49h-14.136zm14.136-18.407v13.408h-14.136v-13.908h13.636c.275 0 .5.224.5.5zm-32.771-.5h13.635v13.908h-14.135v-13.408c0-.276.224-.5.5-.5zm-.5 52.807v-13.41h14.135v13.91h-13.635c-.276 0-.5-.224-.5-.5zm32.771.5h-13.636v-13.91h14.136v13.41c0 .276-.225.5-.5.5z"/><path d="m143.92 201.23h-31.84c-1.38 0-2.5 1.12-2.5 2.5s1.12 2.5 2.5 2.5h31.84c1.38 0 2.5-1.12 2.5-2.5s-1.12-2.5-2.5-2.5z"/><path d="m96.84 42.48c-1.137.764-1.475 2.296-.7 3.47.757 1.153 2.328 1.446 3.46.7 1.117-.738 1.495-2.282.71-3.47-.74-1.11-2.35-1.44-3.47-.7z"/><circle cx="237.9" cy="185.21" r="2.5"/><g><path d="m127.29 168.232c-6.167 0-11.167 5-11.167 11.167s4.999 11.167 11.167 11.167c6.167 0 11.167-4.999 11.167-11.167s-5-11.167-11.167-11.167z" fill="#72c1e8"/><path d="m127.29 193.07c7.54-.01 13.67-6.14 13.67-13.67 0-7.54-6.13-13.67-13.67-13.67-7.53 0-13.66 6.13-13.67 13.67.01 7.53 6.14 13.66 13.67 13.67zm0-22.34c4.77.01 8.66 3.9 8.67 8.67-.01 4.77-3.9 8.66-8.67 8.67-4.77-.01-8.66-3.9-8.67-8.67.01-4.77 3.9-8.66 8.67-8.67z"/></g><circle cx="65.24" cy="229.73" r="2.5"/><path d="m183.53 30.41c1 0 15.324-2.208 19.4-6.16 0 0 .01 0 .01-.01 4.426-4.406 4.449-11.622 0-16.05-4.406-4.426-11.602-4.458-16.06 0-3.516 3.653-5.422 14.262-6.14 19.27-.28 1.999 1.41 3.201 2.79 2.95zm6.89-18.69c2.493-2.473 6.481-2.478 8.98 0 2.485 2.486 2.478 6.512 0 8.99 0 0 0 .01-.01.01-1.658 1.85-10.587 3.758-13.17 4.18.466-2.542 2.299-11.474 4.2-13.18z"/><path d="m197.35 45.17c1.136.366 13.864 6.181 19.77 4.85.01-.01.01-.01.01-.01 6.045-1.467 9.838-7.506 8.36-13.7-1.522-6.273-7.827-9.829-13.71-8.36-4.895 1.265-12.001 9.315-15.27 13.23-1.353 1.909-.333 3.485.84 3.99zm15.61-12.36c3.513-.844 6.861 1.326 7.67 4.68.832 3.395-1.246 6.844-4.68 7.66l-.01.01c-2.792.619-10.752-2.256-13.43-3.29 1.686-1.889 8.01-8.712 10.45-9.06z"/></g></svg>