<?xml version="1.0" standalone="no"?>
<!DOCTYPE svg PUBLIC "-//W3C//DTD SVG 20010904//EN"
 "http://www.w3.org/TR/2001/REC-SVG-20010904/DTD/svg10.dtd">
<svg version="1.0" xmlns="http://www.w3.org/2000/svg"
 width="286.000000pt" height="286.000000pt" viewBox="0 0 286.000000 286.000000"
 preserveAspectRatio="xMidYMid meet">
<metadata>
Created by potrace 1.14, written by Peter Selinger 2001-2017
</metadata>
<g transform="translate(0.000000,286.000000) scale(0.100000,-0.100000)"
fill="#000000" stroke="none">
<path d="M1025 2831 c-88 -22 -181 -67 -265 -130 -66 -50 -198 -181 -257 -257
l-33 -41 85 -82 c46 -44 88 -81 93 -81 4 0 14 17 21 38 29 80 115 179 207 238
159 102 376 150 679 151 88 1 189 -2 225 -7 36 -4 90 -11 120 -14 30 -4 67 -8
81 -10 117 -14 237 -66 301 -130 75 -75 127 -209 143 -371 4 -38 8 -83 11
-100 5 -40 12 -212 19 -470 6 -201 5 -209 -12 -194 -10 8 -56 46 -103 85 -115
93 -106 86 -275 226 -82 68 -171 140 -197 161 -57 46 -65 69 -62 172 2 92 -7
115 -87 222 -95 126 -185 202 -291 244 -156 61 -317 -1 -387 -150 -22 -47 -26
-70 -26 -146 0 -81 3 -97 32 -158 38 -81 113 -163 202 -221 119 -77 156 -91
256 -93 50 -1 101 -2 115 -2 26 -1 60 -33 565 -529 l227 -223 26 17 c101 64
152 130 179 231 13 48 14 104 9 323 -3 146 -8 366 -11 490 -9 363 -13 432 -30
480 -53 151 -219 287 -410 336 -16 5 -266 9 -555 10 -469 2 -532 1 -595 -15z"/>
<path d="M1995 2462 c-60 -38 -82 -100 -60 -166 17 -50 41 -74 86 -87 79 -24
157 19 179 100 9 35 8 48 -9 85 -24 54 -58 78 -119 83 -34 3 -55 -1 -77 -15z"/>
<path d="M352 2198 c-86 -143 -123 -300 -118 -508 2 -80 6 -155 9 -166 3 -12
8 -39 11 -60 23 -148 118 -371 191 -450 5 -6 84 -89 175 -184 91 -95 181 -190
200 -210 240 -253 384 -403 476 -498 l112 -115 48 6 48 5 404 407 404 406 -23
26 c-32 35 -102 104 -126 125 -22 20 -17 24 -510 -480 l-198 -202 -368 367
c-220 219 -389 395 -419 437 -82 117 -140 246 -168 376 -13 59 -21 274 -13
329 l6 34 65 -69 c36 -38 142 -149 236 -247 94 -98 174 -186 177 -195 3 -9 5
-26 3 -37 -2 -11 -4 -46 -5 -78 -1 -47 2 -61 20 -76 18 -15 310 -297 492 -474
42 -40 53 -46 69 -37 11 6 20 15 20 21 0 6 -42 54 -94 107 -168 174 -216 227
-216 238 0 6 9 19 20 29 25 22 7 37 258 -207 50 -49 95 -88 100 -88 16 0 31
25 23 38 -4 6 -74 79 -155 162 -117 119 -146 154 -141 169 3 11 15 23 26 26
17 6 49 -21 170 -142 99 -98 157 -148 171 -148 33 0 31 16 -5 56 -72 82 -132
147 -181 199 -75 79 -87 99 -75 122 6 11 19 18 29 16 10 -2 86 -68 170 -148
84 -80 158 -146 166 -148 27 -6 25 26 -3 55 -15 16 -71 76 -123 133 -52 57
-122 132 -154 167 -32 35 -66 72 -75 82 -53 61 -104 113 -125 126 -17 11 -55
17 -126 19 l-102 4 -367 366 c-201 201 -369 366 -371 366 -3 0 -20 -24 -38
-52z"/>
</g>
</svg>
