<svg id="Capa_1" enable-background="new 0 0 511.904 511.904" height="512" viewBox="0 0 511.904 511.904" width="512" xmlns="http://www.w3.org/2000/svg"><g><g><g><circle clip-rule="evenodd" cx="306.908" cy="204.996" fill="#d1aee5" fill-rule="evenodd" r="195.092"/><g><path clip-rule="evenodd" d="m306.908 356.088c-40.358 0-78.301-15.716-106.838-44.254-58.911-58.911-58.911-154.766 0-213.676 28.538-28.538 66.48-44.254 106.838-44.254s78.301 15.716 106.838 44.254c58.911 58.911 58.911 154.766 0 213.676-28.537 28.538-66.48 44.254-106.838 44.254z" fill="#faf7f5" fill-rule="evenodd"/></g></g><path d="m19.107 492.797c-12.143-12.143-12.143-31.831 0-43.974l86.242-86.242 43.974 43.974-86.242 86.242c-12.143 12.143-31.831 12.143-43.974 0z" fill="#ccf5fc"/><path clip-rule="evenodd" d="m361.207 226.546-21.55-21.55 21.55-21.55c9.043-9.043 9.043-23.706 0-32.749-9.044-9.044-23.706-9.044-32.749 0l-21.55 21.55-21.55-21.55c-9.043-9.044-23.706-9.044-32.749 0s-9.043 23.706 0 32.75l21.55 21.55-21.55 21.55c-9.043 9.043-9.043 23.706 0 32.749 9.044 9.044 23.706 9.044 32.749 0l21.55-21.55 21.55 21.55c9.044 9.044 23.706 9.044 32.749 0 9.044-9.044 9.044-23.707 0-32.75z" fill="#ff7d97" fill-rule="evenodd"/></g><g><g><path d="m451.93 59.974c-79.966-79.965-210.079-79.965-290.044 0-77.594 77.595-79.894 202.407-6.9 282.802l-27.649 27.649-14.916-14.916c-1.875-1.875-4.419-2.929-7.071-2.929s-5.196 1.054-7.071 2.929l-86.242 86.243c-7.762 7.761-12.037 18.081-12.037 29.058s4.275 21.296 12.036 29.058c7.762 7.761 18.082 12.036 29.058 12.036 10.977 0 21.296-4.275 29.058-12.036l86.243-86.242c1.875-1.875 2.929-4.419 2.929-7.071s-1.054-5.196-2.929-7.071l-14.916-14.916 27.649-27.649c38.969 35.382 88.375 53.073 137.78 53.073 52.52 0 105.039-19.991 145.022-59.974 79.965-79.966 79.965-210.079 0-290.044zm-395.92 425.751c-3.984 3.984-9.281 6.179-14.916 6.179-5.634 0-10.932-2.194-14.916-6.179-3.984-3.984-6.178-9.281-6.178-14.915s2.194-10.932 6.179-14.916l79.171-79.172 29.832 29.832zm381.778-149.85c-72.167 72.168-189.592 72.168-261.759.001-72.168-72.168-72.168-189.593-.001-261.76 36.084-36.084 83.483-54.126 130.88-54.126 47.398 0 94.796 18.042 130.879 54.126 72.168 72.167 72.168 189.592.001 261.759z"/><path d="m467.73 203.043c-.852-4.181-4.316-7.425-8.556-7.966-4.163-.531-8.368 1.719-10.206 5.496-1.807 3.711-1.158 8.243 1.673 11.263 2.858 3.048 7.429 3.987 11.261 2.332 4.262-1.84 6.752-6.569 5.828-11.125z"/><path d="m453.914 241.154c-5.269-1.662-10.884 1.261-12.545 6.528-6.848 21.703-18.52 40.908-34.694 57.082-26.648 26.648-62.079 41.325-99.767 41.325-37.687 0-73.119-14.676-99.768-41.325-55.011-55.012-55.011-144.522 0-199.534 26.649-26.649 62.081-41.325 99.768-41.325 37.688 0 73.119 14.676 99.767 41.325 15.992 15.992 28.009 35.794 34.751 57.264 1.655 5.27 7.27 8.199 12.537 6.544 5.269-1.654 8.199-7.268 6.544-12.537-7.704-24.532-21.428-47.152-39.69-65.414-30.426-30.427-70.88-47.183-113.909-47.183s-83.483 16.756-113.91 47.183c-62.81 62.81-62.81 165.009 0 227.819 30.427 30.426 70.88 47.183 113.91 47.183s83.483-16.756 113.909-47.183c18.209-18.208 31.911-40.756 39.625-65.206 1.661-5.268-1.261-10.885-6.528-12.546z"/><path d="m245.538 266.367c12.928 12.928 33.964 12.928 46.892 0l14.479-14.479 14.478 14.479c6.464 6.464 14.955 9.696 23.446 9.696s16.982-3.232 23.446-9.696c12.928-12.928 12.928-33.964 0-46.892l-14.479-14.479 14.479-14.479c12.928-12.928 12.928-33.963 0-46.892-12.928-12.928-33.964-12.928-46.892 0l-14.479 14.48-14.479-14.48c-12.929-12.928-33.963-12.928-46.892 0-12.928 12.928-12.928 33.964.001 46.892l14.479 14.479-14.48 14.479c-12.927 12.927-12.928 33.963.001 46.892zm14.142-32.75 21.55-21.55c1.875-1.875 2.929-4.419 2.929-7.071s-1.054-5.196-2.929-7.071l-21.55-21.55c-5.13-5.13-5.13-13.477 0-18.607 5.129-5.129 13.478-5.13 18.607 0l21.55 21.55c1.876 1.876 4.419 2.929 7.071 2.929s5.196-1.054 7.071-2.929l21.55-21.55c5.13-5.13 13.478-5.13 18.607 0 5.13 5.13 5.13 13.477 0 18.607l-21.55 21.55c-1.875 1.875-2.929 4.419-2.929 7.071s1.054 5.196 2.929 7.071l21.55 21.55c5.13 5.13 5.13 13.477 0 18.607-5.128 5.13-13.476 5.131-18.607 0l-21.55-21.55c-1.875-1.876-4.419-2.929-7.071-2.929s-5.196 1.054-7.071 2.929l-21.55 21.55c-5.129 5.13-13.477 5.13-18.607 0s-5.131-13.477 0-18.607z"/></g></g></g></svg>